# xmcd
#
# Track frame offsets: 
#        150
#        92461
#        136814
#        240474
#
# Disc length: 4251 seconds
#
# Revision: 0
# Processed by: cddbd v1.5.2PL0 Copyright (c) Steve Scherf et al.
# Submitted via: ExactAudioCopy v0.95b4
#
DISCID=24109904
DTITLE=White Rainbow - White Rainbox Box\\CD5
DYEAR=2006
DGENRE=Indie
TTITLE0=Heal Yourself Through Self Hypnosis (Tussle remix)
TTITLE1=Replication of the audio portion of the White Rainbow Full Spe
TTITLE1=ctrum Installation at CCA SF Feb 2004
TTITLE2=Sleep Now We're Really Soft (Dirty Projectors remix)
TTITLE3=Vibe on the Infinite Now (music for the Alex Hubbard video)
EXTD=
EXTT0=
EXTT1=
EXTT2=
EXTT3=
PLAYORDER=
